<?xml version="1.0" encoding="utf-8" standalone="no"?>
<!DOCTYPE svg PUBLIC "-//W3C//DTD SVG 1.1//EN"
  "http://www.w3.org/Graphics/SVG/1.1/DTD/svg11.dtd">
<svg xmlns:xlink="http://www.w3.org/1999/xlink" width="359.678224pt" height="449.28pt" viewBox="0 0 359.678224 449.28" xmlns="http://www.w3.org/2000/svg" version="1.1">
 <metadata>
  <rdf:RDF xmlns:dc="http://purl.org/dc/elements/1.1/" xmlns:cc="http://creativecommons.org/ns#" xmlns:rdf="http://www.w3.org/1999/02/22-rdf-syntax-ns#">
   <cc:Work>
    <dc:type rdf:resource="http://purl.org/dc/dcmitype/StillImage"/>
    <dc:date>2022-12-16T07:25:22.898483</dc:date>
    <dc:format>image/svg+xml</dc:format>
    <dc:creator>
     <cc:Agent>
      <dc:title>Matplotlib v3.5.3, https://matplotlib.org/</dc:title>
     </cc:Agent>
    </dc:creator>
   </cc:Work>
  </rdf:RDF>
 </metadata>
 <defs>
  <style type="text/css">*{stroke-linejoin: round; stroke-linecap: butt}</style>
 </defs>
 <g id="figure_1">
  <g id="patch_1">
   <path d="M 0 449.28 
L 359.678224 449.28 
L 359.678224 0 
L 0 0 
z
" style="fill: #ffffff"/>
  </g>
  <g id="axes_1">
   <g id="patch_2">
    <path d="M 7.2 442.08 
L 7.2 7.2 
L 352.478224 7.2 
L 352.478224 442.08 
L 7.2 442.08 
" style="fill: #ffffff"/>
   </g>
   <g id="PathCollection_1">
    <defs>
     <path id="mebd0b32986" d="M 251.441507 -213.831634 
L 252.154799 -213.258851 
L 267.441878 -202.635956 
L 267.710428 -199.612055 
L 273.724738 -194.40326 
L 271.706782 -187.986822 
L 271.918524 -185.037511 
L 274.587277 -183.14205 
L 274.693039 -181.789749 
L 273.484936 -178.649919 
L 273.699388 -177.070452 
L 273.380361 -174.588692 
L 274.784066 -171.333814 
L 276.409239 -166.218479 
L 277.919138 -165.084708 
L 277.919153 -165.084697 
L 274.519201 -162.080483 
L 269.902613 -160.069579 
L 267.398465 -160.154549 
L 265.876465 -158.601848 
L 262.967568 -158.468448 
L 261.864511 -157.814388 
L 256.875764 -159.272675 
L 253.726912 -158.854092 
L 252.664126 -165.899103 
L 251.276189 -168.317429 
L 250.451288 -169.752069 
L 246.351473 -170.720167 
L 243.986418 -172.278661 
L 241.327158 -173.152545 
L 239.660949 -174.022218 
L 237.916493 -175.344497 
L 237.916517 -175.344489 
L 235.6867 -181.893861 
L 233.259514 -184.806727 
L 232.429184 -187.825205 
L 232.860618 -190.532493 
L 232.11665 -195.324237 
L 233.862386 -195.572195 
L 235.39945 -197.459763 
L 237.050817 -200.177761 
L 238.095771 -201.268539 
L 238.06134 -202.962713 
L 237.154438 -204.144529 
L 236.91374 -206.197572 
L 236.913724 -206.197701 
L 238.134698 -206.857723 
L 238.384264 -209.925741 
L 236.709414 -212.868521 
L 238.192759 -213.494963 
L 242.827325 -213.42815 
z
" style="stroke: #d3d3d3"/>
    </defs>
    <g clip-path="url(#pcb7045fcf0)">
     <use xlink:href="#mebd0b32986" x="0" y="449.28" style="fill: #ffffff; stroke: #d3d3d3"/>
    </g>
   </g>
   <g id="PathCollection_2">
    <defs>
     <path id="m858920f9b0" d="M 81.832939 -360.879726 
L 81.784279 -360.546273 
L 81.563186 -359.58087 
L 80.450754 -352.011267 
L 67.49311 -352.273246 
L 65.737835 -339.405243 
L 61.916617 -338.952046 
L 60.571996 -336.35666 
L 60.361146 -329.039437 
L 44.519062 -329.07118 
L 43.39695 -327.377092 
L 43.874345 -329.522865 
L 43.943854 -329.514866 
L 53.107929 -329.920167 
L 53.843056 -331.74775 
L 55.810575 -334.023676 
L 58.136701 -341.00185 
L 64.494563 -346.43577 
L 67.326155 -352.761621 
L 68.619632 -353.128253 
L 70.516125 -357.024842 
L 73.913289 -357.560959 
L 75.23806 -356.912589 
L 77.026913 -356.912589 
L 78.467767 -358.048405 
L 80.92385 -358.209175 
L 81.235852 -360.879726 
z
" style="stroke: #d3d3d3"/>
    </defs>
    <g clip-path="url(#pcb7045fcf0)">
     <use xlink:href="#m858920f9b0" x="0" y="449.28" style="fill: #ffffff; stroke: #d3d3d3"/>
    </g>
   </g>
   <g id="PathCollection_3">
    <defs>
     <path id="m36a5ab75b7" d="M 232.11665 -195.324237 
L 232.860618 -190.532493 
L 232.429184 -187.825205 
L 233.259514 -184.806727 
L 235.6867 -181.893861 
L 237.916517 -175.344489 
L 237.916493 -175.344497 
L 236.265347 -175.873087 
L 230.618565 -174.996325 
L 229.490004 -174.375485 
L 228.278844 -171.061062 
L 229.206279 -168.772632 
L 228.430486 -162.634735 
L 227.884378 -157.438208 
L 229.005916 -156.517838 
L 231.906414 -154.505492 
L 233.057892 -155.445658 
L 233.357634 -149.874377 
L 230.175738 -149.91706 
L 228.486654 -152.75941 
L 226.964902 -154.961785 
L 223.773859 -155.684279 
L 222.847926 -158.394908 
L 220.292125 -156.761608 
L 216.95249 -157.483123 
L 215.558808 -159.832818 
L 212.906359 -160.310368 
L 210.948677 -160.185424 
L 210.706381 -161.795024 
L 209.264172 -161.925372 
L 207.359399 -162.230784 
L 204.77266 -161.45512 
L 202.955806 -161.582246 
L 201.923647 -161.107217 
L 202.11715 -167.274264 
L 200.710212 -169.199181 
L 200.387155 -172.391074 
L 200.991862 -175.521667 
L 200.13186 -177.526328 
L 200.041431 -180.797177 
L 194.937332 -180.751766 
L 195.294192 -182.625449 
L 193.146984 -182.605828 
L 192.925168 -181.704662 
L 190.316711 -181.501494 
L 189.282005 -178.471719 
L 188.661687 -177.172116 
L 186.333451 -177.906077 
L 184.952798 -177.17507 
L 182.177869 -176.754825 
L 180.542181 -179.472338 
L 179.559897 -181.15376 
L 178.323825 -184.272766 
L 177.252344 -188.150686 
L 164.81589 -188.21955 
L 163.344747 -187.594149 
L 162.122946 -187.69152 
L 160.392083 -186.991931 
L 159.782724 -188.606383 
L 160.848545 -189.156268 
L 160.956372 -191.426155 
L 161.633118 -192.765074 
L 163.158085 -193.859773 
L 164.271147 -193.32923 
L 165.697225 -195.32343 
L 167.996258 -195.272008 
L 168.278191 -193.797323 
L 169.861509 -192.874618 
L 172.320045 -196.139479 
L 174.763558 -198.684149 
L 175.821996 -200.352092 
L 175.661682 -204.641011 
L 177.481377 -209.706642 
L 179.413033 -212.393088 
L 182.193419 -214.906961 
L 182.678175 -216.570809 
L 182.782949 -218.483741 
L 183.472279 -220.293713 
L 183.252879 -223.249719 
L 183.786525 -227.871487 
L 184.619854 -231.12486 
L 185.89316 -233.912813 
L 186.153976 -237.061059 
L 186.547975 -240.695502 
L 188.202613 -243.34068 
L 190.468992 -245.018004 
L 193.933345 -243.247808 
L 196.614888 -241.325966 
L 199.701102 -240.813036 
L 202.848018 -239.795988 
L 204.115479 -242.942401 
L 204.695718 -243.34391 
L 206.61778 -242.82072 
L 211.316947 -245.420365 
L 212.980394 -244.318607 
L 214.346332 -244.474856 
L 214.978874 -245.741298 
L 216.546104 -246.187489 
L 219.719025 -245.639569 
L 222.423803 -245.519673 
L 223.815302 -246.072176 
L 226.37846 -241.7721 
L 228.274728 -241.140317 
L 229.402491 -242.015217 
L 231.354735 -241.672347 
L 233.701668 -242.774416 
L 234.710851 -240.549156 
L 238.438162 -237.086004 
L 238.438194 -237.085974 
L 238.197709 -230.990133 
L 239.892841 -230.284011 
L 238.537497 -228.432433 
L 236.915718 -227.047361 
L 235.302208 -224.327559 
L 234.414285 -221.90259 
L 234.176939 -217.715817 
L 233.196961 -215.722843 
L 233.159056 -211.790719 
L 231.942074 -210.336996 
L 231.781812 -207.233892 
L 231.200817 -206.831854 
L 230.805475 -203.979583 
L 231.863323 -201.609457 
z
" style="stroke: #d3d3d3"/>
    </defs>
    <g clip-path="url(#pcb7045fcf0)">
     <use xlink:href="#m36a5ab75b7" x="0" y="449.28" style="fill: #ffffff; stroke: #d3d3d3"/>
    </g>
   </g>
   <g id="PathCollection_4">
    <defs>
     <path id="m5ec77e938e" d="M 283.902437 -210.007431 
L 281.412769 -214.309966 
L 281.318343 -233.308447 
L 284.960744 -239.221468 
L 286.098262 -240.864036 
L 288.802939 -240.960222 
L 292.516884 -244.632701 
L 298.008527 -244.862235 
L 309.577689 -260.477962 
L 312.37812 -264.813289 
L 314.166632 -268.000869 
L 314.071471 -270.707293 
L 313.873099 -275.935497 
L 313.800787 -278.068424 
L 313.823157 -278.153063 
L 313.823157 -278.153063 
L 315.15335 -278.2551 
L 317.044536 -279.024037 
L 319.234401 -279.544975 
L 321.127157 -281.315887 
L 322.707817 -281.330058 
L 322.87015 -279.899815 
L 322.621761 -276.889297 
L 322.755323 -274.166798 
L 321.94918 -272.294949 
L 320.981761 -266.687891 
L 319.153048 -260.887063 
L 316.738412 -254.247528 
L 313.291309 -246.61982 
L 309.787109 -240.787285 
L 304.905099 -233.677409 
L 300.70924 -229.45643 
L 294.410497 -224.278101 
L 290.477025 -220.310804 
L 285.844983 -213.992485 
L 284.861807 -211.242288 
z
" style="stroke: #d3d3d3"/>
    </defs>
    <g clip-path="url(#pcb7045fcf0)">
     <use xlink:href="#m5ec77e938e" x="0" y="449.28" style="fill: #ffffff; stroke: #d3d3d3"/>
    </g>
   </g>
   <g id="PathCollection_5">
    <defs>
     <path id="m8ef9874de2" d="M 273.724738 -194.40326 
L 267.710428 -199.612055 
L 267.441878 -202.635956 
L 252.154799 -213.258851 
L 251.441507 -213.831634 
L 251.401694 -219.359487 
L 252.611793 -221.472908 
L 254.688088 -224.925406 
L 256.217623 -228.726779 
L 254.337139 -234.711988 
L 253.830974 -237.327996 
L 251.809889 -240.946127 
L 254.386187 -244.057525 
L 257.21828 -247.488816 
L 259.415818 -246.615249 
L 259.439705 -243.692084 
L 260.894172 -241.977638 
L 263.831378 -241.977638 
L 269.208191 -237.55214 
L 270.543193 -237.499525 
L 271.53098 -237.643168 
L 272.470215 -237.042056 
L 275.289543 -236.631952 
L 276.520165 -238.803923 
L 280.356263 -240.983304 
L 282.076055 -239.222396 
L 284.960744 -239.221468 
L 281.318343 -233.308447 
L 281.412769 -214.309966 
L 283.902437 -210.007431 
L 280.932826 -207.925132 
L 279.877597 -205.749496 
L 278.291649 -205.36731 
L 277.667908 -201.694044 
L 276.295321 -199.590999 
L 275.440706 -196.123729 
z
" style="stroke: #d3d3d3"/>
    </defs>
    <g clip-path="url(#pcb7045fcf0)">
     <use xlink:href="#m8ef9874de2" x="0" y="449.28" style="fill: #ffffff; stroke: #d3d3d3"/>
    </g>
   </g>
   <g id="PathCollection_6">
    <defs>
     <path id="m89ba37fabf" d="M 211.989374 -261.653208 
L 208.794277 -263.923756 
L 207.341966 -265.418967 
L 207.076573 -267.032131 
L 207.763184 -269.191369 
L 207.756217 -271.307516 
L 205.352731 -274.54794 
L 204.887361 -276.76443 
L 204.942843 -278.018441 
L 203.415271 -279.543888 
L 203.384195 -282.54834 
L 202.521774 -284.542452 
L 201.057362 -284.243416 
L 201.489025 -286.14085 
L 202.57954 -288.293127 
L 202.122274 -290.430054 
L 203.496513 -292.011594 
L 202.639176 -293.215845 
L 203.754782 -296.396147 
L 205.664657 -300.184578 
L 209.224807 -299.825313 
L 209.099101 -320.153234 
L 209.158549 -322.291167 
L 213.837305 -322.306651 
L 213.845019 -332.452573 
L 230.065128 -332.452573 
L 245.720358 -332.452573 
L 261.723513 -332.452573 
L 263.226819 -327.474122 
L 262.373905 -326.552244 
L 263.161967 -321.312794 
L 264.881233 -315.22054 
L 266.485309 -313.961975 
L 268.796562 -312.071785 
L 266.8245 -309.149461 
L 263.826791 -308.307082 
L 262.581307 -306.735364 
L 262.277195 -303.324527 
L 260.704151 -295.769084 
L 261.196516 -293.706862 
L 260.641979 -289.278852 
L 259.061794 -284.192256 
L 256.598537 -281.631151 
L 254.878598 -277.678593 
L 254.493263 -275.561764 
L 252.534604 -274.110786 
L 251.370651 -268.684853 
L 251.483776 -264.018483 
L 251.385976 -268.065915 
L 250.804359 -268.168523 
L 250.843122 -270.750928 
L 250.31625 -272.53102 
L 248.134245 -274.577207 
L 247.581693 -278.31106 
L 248.028133 -282.130046 
L 246.090749 -282.485098 
L 245.820577 -281.331051 
L 243.318133 -281.06468 
L 244.340048 -279.554881 
L 244.737336 -276.444573 
L 242.472821 -273.598721 
L 240.425634 -269.86061 
L 238.272368 -269.326335 
L 234.72523 -272.353044 
L 233.151662 -271.285032 
L 232.730228 -269.771569 
L 230.577904 -268.791996 
L 230.439818 -267.723134 
L 226.265031 -267.723134 
L 225.685144 -268.791996 
L 222.66265 -268.970116 
L 221.153731 -268.079449 
L 220.001397 -268.524804 
L 217.839275 -271.55206 
L 217.119209 -272.975929 
L 214.101662 -272.264053 
L 212.950269 -269.86061 
L 211.866789 -265.228184 
L 210.424632 -264.247677 
L 209.134585 -263.68181 
z
" style="stroke: #d3d3d3"/>
    </defs>
    <g clip-path="url(#pcb7045fcf0)">
     <use xlink:href="#m89ba37fabf" x="0" y="449.28" style="fill: #ffffff; stroke: #d3d3d3"/>
    </g>
   </g>
   <g id="PathCollection_7">
    <defs>
     <path id="mfe10c82ed0" d="M 209.099101 -320.153234 
L 209.224807 -299.825313 
L 205.664657 -300.184578 
L 203.754782 -296.396147 
L 202.639176 -293.215845 
L 203.496513 -292.011594 
L 202.122274 -290.430054 
L 202.57954 -288.293127 
L 201.489025 -286.14085 
L 201.057362 -284.243416 
L 202.521774 -284.542452 
L 203.384195 -282.54834 
L 203.415271 -279.543888 
L 204.942843 -278.018441 
L 204.887361 -276.76443 
L 202.237701 -275.881434 
L 200.104974 -273.78416 
L 197.043704 -268.126622 
L 193.080462 -265.722247 
L 189.031601 -266.044822 
L 187.844335 -265.567591 
L 188.24419 -263.739793 
L 186.038839 -261.923959 
L 184.236904 -259.895483 
L 178.92542 -257.90684 
L 177.886913 -259.083966 
L 177.19169 -259.185496 
L 176.402537 -257.848408 
L 172.921066 -257.457633 
L 173.595801 -258.865858 
L 172.315013 -262.447837 
L 171.75235 -264.597696 
L 169.937188 -265.479061 
L 167.509007 -268.508018 
L 168.460262 -270.955565 
L 170.360413 -270.43462 
L 171.54811 -270.803897 
L 173.886541 -270.753116 
L 171.684642 -275.464153 
L 171.898551 -278.903322 
L 171.684624 -282.335378 
L 170.095985 -285.64467 
L 170.564428 -288.076894 
L 167.901153 -288.195724 
L 167.989413 -291.514123 
L 166.310716 -293.423586 
L 168.278441 -300.203342 
L 173.667819 -305.046421 
L 174.063028 -311.711748 
L 175.935944 -322.073055 
L 176.885795 -324.264554 
L 175.250458 -326.00817 
L 175.237088 -327.624501 
L 173.765902 -328.945256 
L 173.057505 -336.820464 
L 177.210267 -339.582557 
L 193.015219 -329.892207 
z
" style="stroke: #d3d3d3"/>
    </defs>
    <g clip-path="url(#pcb7045fcf0)">
     <use xlink:href="#mfe10c82ed0" x="0" y="449.28" style="fill: #ffffff; stroke: #d3d3d3"/>
    </g>
   </g>
   <g id="PathCollection_8">
    <defs>
     <path id="mef3f883e16" d="M 180.1108 -72.117819 
L 181.884705 -74.574968 
L 183.479671 -73.214143 
L 184.215383 -71.091576 
L 185.976049 -70.73019 
L 188.454713 -69.792826 
L 190.534052 -70.154732 
L 193.944914 -72.691792 
L 193.52709 -91.149333 
L 194.617488 -90.394529 
L 197.063819 -85.62687 
L 196.757419 -82.577132 
L 197.670988 -80.822638 
L 200.48534 -81.332196 
L 202.427105 -83.563476 
L 204.281835 -85.069288 
L 205.226733 -87.470062 
L 207.153431 -88.633037 
L 208.831588 -88.023568 
L 210.734091 -86.618791 
L 213.961149 -86.370881 
L 216.497961 -87.538494 
L 216.902901 -89.104172 
L 217.608501 -91.508416 
L 219.778386 -91.910983 
L 220.988242 -93.801412 
L 222.342182 -97.160178 
L 225.977678 -100.930891 
L 231.72147 -104.658163 
L 233.361498 -104.602923 
L 235.297537 -103.74494 
L 236.667188 -104.352921 
L 238.799865 -103.846736 
L 240.563544 -96.733164 
L 241.513732 -93.153343 
L 240.657061 -87.551196 
L 240.946907 -85.751149 
L 238.971207 -86.669051 
L 237.816495 -86.311824 
L 237.407649 -84.852936 
L 236.283963 -82.974074 
L 236.280575 -81.245708 
L 238.561882 -78.540293 
L 240.877915 -79.078711 
L 241.744535 -81.295793 
L 244.733181 -81.25397 
L 243.631481 -77.621653 
L 243.032673 -73.487075 
L 241.949229 -71.2459 
L 239.215541 -68.743004 
L 238.435331 -68.027211 
L 236.721208 -65.515538 
L 235.574218 -62.979917 
L 233.300754 -59.452566 
L 228.863921 -54.390813 
L 226.12556 -51.457598 
L 223.230932 -49.237823 
L 219.262517 -47.348461 
L 217.337374 -47.095045 
L 216.846319 -45.745473 
L 214.557591 -46.463766 
L 212.694555 -45.538862 
L 208.606152 -46.475323 
L 206.329868 -45.882565 
L 204.766717 -46.13696 
L 200.921197 -44.220036 
L 197.733972 -43.452107 
L 195.470679 -41.621222 
L 193.772576 -41.504926 
L 192.129052 -43.231905 
L 190.858075 -43.320581 
L 189.157934 -45.486902 
L 189.006442 -44.813649 
L 188.454835 -46.119128 
L 188.364349 -48.972396 
L 187.004354 -52.242417 
L 188.197628 -53.13289 
L 187.95852 -56.892163 
L 185.272037 -61.492208 
L 183.168188 -65.670238 
L 183.161859 -65.683514 
z
M 229.362757 -70.238243 
L 227.687181 -71.76642 
L 225.851224 -70.754535 
L 223.719785 -68.815679 
L 221.621021 -65.683514 
L 224.47708 -61.889234 
L 225.862337 -62.378817 
L 226.595006 -63.95425 
L 228.761208 -64.724964 
L 229.448319 -66.336733 
L 230.684024 -68.743004 
z
" style="stroke: #d3d3d3"/>
    </defs>
    <g clip-path="url(#pcb7045fcf0)">
     <use xlink:href="#mef3f883e16" x="0" y="449.28" style="fill: #ffffff; stroke: #d3d3d3"/>
    </g>
   </g>
   <g id="PathCollection_9">
    <defs>
     <path id="m9aa9793ac6" d="M 229.362757 -70.238243 
L 230.684024 -68.743004 
L 229.448319 -66.336733 
L 228.761208 -64.724964 
L 226.595006 -63.95425 
L 225.862337 -62.378817 
L 224.47708 -61.889234 
L 221.621021 -65.683514 
L 223.719785 -68.815679 
L 225.851224 -70.754535 
L 227.687181 -71.76642 
z
" style="stroke: #d3d3d3"/>
    </defs>
    <g clip-path="url(#pcb7045fcf0)">
     <use xlink:href="#m9aa9793ac6" x="0" y="449.28" style="fill: #ffffff; stroke: #d3d3d3"/>
    </g>
   </g>
   <g id="PathCollection_10">
    <defs>
     <path id="m6642c0d7f7" d="M 238.799865 -103.846736 
L 236.667188 -104.352921 
L 235.297537 -103.74494 
L 233.361498 -104.602923 
L 231.72147 -104.658163 
L 229.178363 -106.948792 
L 226.060793 -107.727455 
L 224.898181 -110.948166 
L 224.902685 -112.741859 
L 223.16749 -113.289005 
L 218.5866 -118.885921 
L 217.309438 -121.840284 
L 216.487856 -122.751807 
L 214.913466 -126.841432 
L 219.497198 -126.280873 
L 220.826943 -125.691358 
L 222.211726 -125.810095 
L 224.503791 -129.124422 
L 228.112981 -133.342533 
L 229.591468 -133.746288 
L 230.109232 -135.526782 
L 232.479725 -137.574125 
L 235.616816 -138.277995 
L 235.860302 -136.360246 
L 239.30459 -136.462488 
L 241.200311 -135.378119 
L 242.068264 -134.107385 
L 244.024361 -133.734349 
L 246.132431 -132.085248 
L 246.007998 -125.600127 
L 245.133423 -122.056513 
L 244.874053 -118.241646 
L 245.494423 -116.731356 
L 244.96431 -113.732928 
L 244.339722 -113.269809 
L 243.184487 -109.60329 
z
" style="stroke: #d3d3d3"/>
    </defs>
    <g clip-path="url(#pcb7045fcf0)">
     <use xlink:href="#m6642c0d7f7" x="0" y="449.28" style="fill: #ffffff; stroke: #d3d3d3"/>
    </g>
   </g>
   <g id="PathCollection_11">
    <defs>
     <path id="mb686f04817" d="M 231.72147 -104.658163 
L 225.977678 -100.930891 
L 222.342182 -97.160178 
L 220.988242 -93.801412 
L 219.778386 -91.910983 
L 217.608501 -91.508416 
L 216.902901 -89.104172 
L 216.497961 -87.538494 
L 213.961149 -86.370881 
L 210.734091 -86.618791 
L 208.831588 -88.023568 
L 207.153431 -88.633037 
L 205.226733 -87.470062 
L 204.281835 -85.069288 
L 202.427105 -83.563476 
L 200.48534 -81.332196 
L 197.670988 -80.822638 
L 196.757419 -82.577132 
L 197.063819 -85.62687 
L 194.617488 -90.394529 
L 193.52709 -91.149333 
L 193.23481 -105.885392 
L 197.211831 -106.061973 
L 197.084428 -124.202751 
L 200.131165 -124.371894 
L 206.435697 -126.16317 
L 208.012603 -124.054234 
L 210.620805 -126.059226 
L 211.864611 -126.070598 
L 214.175736 -127.22403 
L 214.913466 -126.841432 
L 216.487856 -122.751807 
L 217.309438 -121.840284 
L 218.5866 -118.885921 
L 223.16749 -113.289005 
L 224.902685 -112.741859 
L 224.898181 -110.948166 
L 226.060793 -107.727455 
L 229.178363 -106.948792 
z
" style="stroke: #d3d3d3"/>
    </defs>
    <g clip-path="url(#pcb7045fcf0)">
     <use xlink:href="#mb686f04817" x="0" y="449.28" style="fill: #ffffff; stroke: #d3d3d3"/>
    </g>
   </g>
   <g id="PathCollection_12">
    <defs>
     <path id="mb3930432ad" d="M 193.52709 -91.149333 
L 193.944914 -72.691792 
L 190.534052 -70.154732 
L 188.454713 -69.792826 
L 185.976049 -70.73019 
L 184.215383 -71.091576 
L 183.479671 -73.214143 
L 181.884705 -74.574968 
L 180.1108 -72.117819 
L 177.046292 -75.873059 
L 175.351082 -79.51263 
L 174.269105 -84.378672 
L 173.136845 -88.009566 
L 171.477027 -95.754661 
L 171.145352 -101.796191 
L 170.523034 -104.55737 
L 168.871783 -106.646588 
L 166.619258 -110.841268 
L 164.246823 -116.947612 
L 163.234974 -120.15024 
L 159.718068 -125.139266 
L 159.322999 -129.067751 
L 161.266348 -130.042715 
L 163.69871 -130.916029 
L 166.370248 -130.762859 
L 168.891652 -128.445257 
L 169.501899 -128.805337 
L 186.149861 -129.026441 
L 189.03873 -126.572379 
L 198.977074 -125.847913 
L 206.50044 -127.934353 
L 209.858391 -129.098734 
L 212.523315 -128.803748 
L 214.144808 -127.649034 
L 214.175736 -127.22403 
L 211.864611 -126.070598 
L 210.620805 -126.059226 
L 208.012603 -124.054234 
L 206.435697 -126.16317 
L 200.131165 -124.371894 
L 197.084428 -124.202751 
L 197.211831 -106.061973 
L 193.23481 -105.885392 
z
" style="stroke: #d3d3d3"/>
    </defs>
    <g clip-path="url(#pcb7045fcf0)">
     <use xlink:href="#mb3930432ad" x="0" y="449.28" style="fill: #ffffff; stroke: #d3d3d3"/>
    </g>
   </g>
   <g id="PathCollection_13">
    <defs>
     <path id="m43fe706f12" d="M 40.523377 -289.442045 
L 39.177753 -293.456472 
L 37.28632 -295.290461 
L 39.203293 -296.268414 
L 41.567162 -299.880262 
L 42.819874 -302.519139 
L 44.404453 -304.165492 
L 46.406045 -303.722329 
L 48.532601 -304.841035 
L 50.838037 -304.897388 
L 52.654038 -303.388415 
L 55.258023 -302.027781 
L 57.404227 -298.245659 
L 59.826287 -294.71 
L 59.751285 -291.503998 
L 60.337087 -288.549922 
L 61.783515 -287.100082 
L 61.992746 -285.102883 
L 61.686186 -283.493038 
L 61.064172 -283.201485 
L 58.821417 -283.610159 
L 58.46759 -283.03533 
L 57.540636 -282.919792 
L 54.638209 -284.17982 
L 52.631965 -284.233096 
L 44.95244 -284.450063 
L 43.789675 -283.868161 
L 42.423566 -284.034543 
L 40.149287 -283.192536 
L 39.793617 -287.152645 
L 43.570248 -287.043649 
L 44.629993 -287.766794 
L 45.378569 -287.80921 
L 47.01914 -289.001147 
L 48.711478 -287.910577 
L 50.510542 -287.819613 
L 52.403348 -288.978081 
L 51.687327 -290.469192 
L 50.245394 -289.600551 
L 48.958354 -289.624679 
L 47.427508 -290.894295 
L 46.104165 -290.811145 
L 45.060718 -289.589753 
z
" style="stroke: #d3d3d3"/>
    </defs>
    <g clip-path="url(#pcb7045fcf0)">
     <use xlink:href="#m43fe706f12" x="0" y="449.28" style="fill: #ffffff; stroke: #d3d3d3"/>
    </g>
   </g>
   <g id="PathCollection_14">
    <defs>
     <path id="m39c1e8504c" d="M 61.686186 -283.493038 
L 61.992746 -285.102883 
L 61.783515 -287.100082 
L 60.337087 -288.549922 
L 59.751285 -291.503998 
L 59.826287 -294.71 
L 61.299761 -295.648634 
L 62.257565 -298.680415 
L 63.578218 -298.798961 
L 66.342848 -297.366107 
L 68.760584 -298.383496 
L 70.330604 -298.042014 
L 71.045799 -299.185928 
L 87.632968 -299.26406 
L 88.822718 -302.862319 
L 88.157492 -303.495214 
L 88.157139 -325.552663 
L 88.697808 -347.372983 
L 94.798601 -347.463338 
L 107.100435 -336.465104 
L 119.775467 -325.399973 
L 120.563448 -323.015501 
L 122.991895 -321.558755 
L 124.820149 -320.729848 
L 124.649347 -317.484507 
L 129.210122 -317.984215 
L 128.527297 -306.200336 
L 126.087989 -302.772083 
L 125.568304 -299.605658 
L 121.85445 -298.790057 
L 116.189466 -298.347875 
L 114.55684 -296.519136 
L 111.892726 -296.316964 
L 109.237482 -296.293288 
L 108.263496 -297.280743 
L 105.941155 -296.54813 
L 101.93987 -294.41214 
L 101.050908 -292.80148 
L 97.691999 -290.490249 
L 97.047969 -289.165008 
L 95.243956 -288.114237 
L 93.275721 -288.810078 
L 92.060395 -287.550441 
L 91.241347 -284.008104 
L 87.691259 -279.722394 
L 87.692931 -277.96945 
L 86.438279 -275.774642 
L 86.564203 -272.76673 
L 84.799782 -271.998608 
L 83.790248 -271.344357 
L 83.252481 -273.561359 
L 82.014624 -272.976985 
L 81.297923 -273.078091 
L 80.451136 -271.565399 
L 77.219879 -271.608132 
L 76.101265 -272.386504 
L 75.530987 -271.91556 
L 74.332001 -273.409783 
L 74.638382 -274.952732 
L 74.149771 -275.557035 
L 73.230483 -275.047499 
L 73.489715 -276.732588 
L 74.423901 -278.065214 
L 72.844132 -280.233053 
L 72.436513 -281.659583 
L 71.58328 -282.795568 
L 70.758049 -282.931146 
L 69.709047 -282.207113 
L 68.316829 -281.515405 
L 67.100416 -280.396128 
L 65.341795 -280.809398 
L 64.271769 -282.122544 
L 63.592619 -282.29502 
L 62.45746 -281.605868 
L 61.795737 -281.599989 
z
" style="stroke: #d3d3d3"/>
    </defs>
    <g clip-path="url(#pcb7045fcf0)">
     <use xlink:href="#m39c1e8504c" x="0" y="449.28" style="fill: #ffffff; stroke: #d3d3d3"/>
    </g>
   </g>
   <g id="PathCollection_15">
    <defs>
     <path id="m54a27677f3" d="M 43.39695 -327.377092 
L 44.519062 -329.07118 
L 60.361146 -329.039437 
L 60.571996 -336.35666 
L 61.916617 -338.952046 
L 65.737835 -339.405243 
L 67.49311 -352.273246 
L 80.450754 -352.011267 
L 81.563186 -359.58087 
L 94.798601 -347.463338 
L 88.697808 -347.372983 
L 88.157139 -325.552663 
L 88.157492 -303.495214 
L 88.822718 -302.862319 
L 87.632968 -299.26406 
L 71.045799 -299.185928 
L 70.330604 -298.042014 
L 68.760584 -298.383496 
L 66.342848 -297.366107 
L 63.578218 -298.798961 
L 62.257565 -298.680415 
L 61.299761 -295.648634 
L 59.826287 -294.71 
L 57.404227 -298.245659 
L 55.258023 -302.027781 
L 52.654038 -303.388415 
L 50.838037 -304.897388 
L 48.532601 -304.841035 
L 46.406045 -303.722329 
L 44.404453 -304.165492 
L 42.819874 -302.519139 
L 42.757398 -305.285465 
L 44.183129 -307.814141 
L 45.242408 -312.635464 
L 45.398977 -317.685379 
L 45.225831 -320.221284 
L 45.961077 -322.762364 
L 45.232746 -325.181561 
z
" style="stroke: #d3d3d3"/>
    </defs>
    <g clip-path="url(#pcb7045fcf0)">
     <use xlink:href="#m54a27677f3" x="0" y="449.28" style="fill: #ffffff; stroke: #d3d3d3"/>
    </g>
   </g>
   <g id="PathCollection_16">
    <defs>
     <path id="mb3666d9a9a" d="M 119.834339 -251.407534 
L 116.339577 -250.800409 
L 115.385984 -254.389944 
L 115.921092 -266.323789 
L 115.112082 -267.393101 
L 115.041859 -269.93921 
L 113.654293 -271.755218 
L 112.434732 -273.285385 
L 113.076539 -276.013247 
L 114.537889 -276.599327 
L 115.48293 -278.862671 
L 117.543727 -279.346172 
L 118.520472 -280.893063 
L 119.98481 -282.407773 
L 121.479652 -282.421132 
L 124.539813 -279.444576 
L 124.311339 -277.725078 
L 125.139058 -274.653023 
L 124.242016 -272.566911 
L 124.636046 -271.172473 
L 122.498939 -267.961453 
L 121.156919 -266.370595 
L 120.26653 -263.095533 
L 120.27951 -259.790609 
z
" style="stroke: #d3d3d3"/>
    </defs>
    <g clip-path="url(#pcb7045fcf0)">
     <use xlink:href="#mb3666d9a9a" x="0" y="449.28" style="fill: #ffffff; stroke: #d3d3d3"/>
    </g>
   </g>
   <g id="PathCollection_17">
    <defs>
     <path id="mf5f5f6527a" d="M 173.057505 -336.820464 
L 173.765902 -328.945256 
L 175.237088 -327.624501 
L 175.250458 -326.00817 
L 176.885795 -324.264554 
L 175.935944 -322.073055 
L 174.063028 -311.711748 
L 173.667819 -305.046421 
L 168.278441 -300.203342 
L 166.310716 -293.423586 
L 167.989413 -291.514123 
L 167.901153 -288.195724 
L 170.564428 -288.076894 
L 170.095985 -285.64467 
L 168.914741 -285.34836 
L 168.745301 -283.70324 
L 167.968045 -283.589059 
L 165.284172 -289.242869 
L 164.314212 -289.448178 
L 160.989184 -286.562933 
L 157.810001 -288.069425 
L 155.581386 -288.37056 
L 154.360308 -287.645814 
L 151.927608 -287.802407 
L 149.405339 -285.601827 
L 147.278583 -285.475563 
L 142.334812 -288.144511 
L 140.318392 -286.877148 
L 138.19898 -286.965202 
L 136.714313 -288.914747 
L 132.629491 -290.839795 
L 128.140729 -290.228897 
L 127.009726 -289.113144 
L 126.296232 -286.144201 
L 125.015172 -284.061115 
L 124.539813 -279.444576 
L 121.479652 -282.421132 
L 119.98481 -282.407773 
L 118.520472 -280.893063 
L 118.769323 -284.433774 
L 114.023345 -285.605564 
L 114.016428 -288.104368 
L 111.851771 -291.473089 
L 111.423203 -293.820857 
L 111.892726 -296.316964 
L 114.55684 -296.519136 
L 116.189466 -298.347875 
L 121.85445 -298.790057 
L 125.568304 -299.605658 
L 126.087989 -302.772083 
L 128.527297 -306.200336 
L 129.210122 -317.984215 
L 135.101003 -320.25896 
L 147.43783 -330.250272 
L 161.744789 -339.895228 
L 167.991502 -337.717885 
L 170.139214 -334.94054 
z
" style="stroke: #d3d3d3"/>
    </defs>
    <g clip-path="url(#pcb7045fcf0)">
     <use xlink:href="#mf5f5f6527a" x="0" y="449.28" style="fill: #ffffff; stroke: #d3d3d3"/>
    </g>
   </g>
   <g id="PathCollection_18">
    <defs>
     <path id="mad60e63b35" d="M 119.834339 -251.407534 
L 120.27951 -259.790609 
L 120.26653 -263.095533 
L 121.156919 -266.370595 
L 122.498939 -267.961453 
L 124.636046 -271.172473 
L 124.242016 -272.566911 
L 125.139058 -274.653023 
L 124.311339 -277.725078 
L 124.539813 -279.444576 
L 125.015172 -284.061115 
L 126.296232 -286.144201 
L 127.009726 -289.113144 
L 128.140729 -290.228897 
L 132.629491 -290.839795 
L 136.714313 -288.914747 
L 138.19898 -286.965202 
L 140.318392 -286.877148 
L 142.334812 -288.144511 
L 147.278583 -285.475563 
L 149.405339 -285.601827 
L 151.927608 -287.802407 
L 154.360308 -287.645814 
L 155.581386 -288.37056 
L 157.810001 -288.069425 
L 160.989184 -286.562933 
L 164.314212 -289.448178 
L 165.284172 -289.242869 
L 167.968045 -283.589059 
L 168.745301 -283.70324 
L 170.352831 -281.644083 
L 169.879817 -280.709961 
L 169.625907 -278.990238 
L 166.028749 -274.983652 
L 164.860229 -271.676184 
L 164.220174 -268.980798 
L 163.310402 -267.824567 
L 162.401344 -264.190901 
L 160.120138 -262.051343 
L 159.42671 -259.421989 
L 158.449811 -257.328265 
L 158.024354 -255.16675 
L 155.107289 -253.413966 
L 152.776514 -255.551489 
L 151.17982 -255.465217 
L 148.624229 -252.420503 
L 147.404126 -252.373717 
L 145.325742 -247.351701 
L 144.192974 -243.666129 
L 139.789718 -241.79135 
L 138.191484 -242.065294 
L 136.554436 -240.897718 
L 133.179687 -241.011614 
L 130.965257 -244.270292 
L 129.637428 -248.039682 
L 126.718119 -251.469118 
L 123.551573 -251.404845 
z
" style="stroke: #d3d3d3"/>
    </defs>
    <g clip-path="url(#pcb7045fcf0)">
     <use xlink:href="#mad60e63b35" x="0" y="449.28" style="fill: #ffffff; stroke: #d3d3d3"/>
    </g>
   </g>
   <g id="PathCollection_19">
    <defs>
     <path id="m4d3f10092c" d="M 170.095985 -285.64467 
L 171.684624 -282.335378 
L 171.898551 -278.903322 
L 171.684642 -275.464153 
L 173.886541 -270.753116 
L 171.54811 -270.803897 
L 170.360413 -270.43462 
L 168.460262 -270.955565 
L 167.509007 -268.508018 
L 169.937188 -265.479061 
L 171.75235 -264.597696 
L 172.315013 -262.447837 
L 173.595801 -258.865858 
L 172.921066 -257.457633 
L 170.74756 -252.186433 
L 169.727094 -251.241739 
L 169.363335 -247.206402 
L 169.764236 -245.013159 
L 169.412002 -243.461009 
L 171.386746 -240.740335 
L 171.734919 -238.869469 
L 173.279106 -236.17972 
L 175.203053 -234.502405 
L 175.38225 -232.124238 
L 175.82278 -230.61343 
L 175.510838 -227.797645 
L 172.155888 -229.03015 
L 168.743536 -230.406078 
L 163.411314 -230.6106 
L 162.886464 -230.89488 
L 160.382041 -230.223246 
L 157.817089 -230.921691 
L 155.807275 -230.579073 
L 148.931208 -230.69804 
L 149.574272 -234.814501 
L 147.951654 -238.260546 
L 146.03358 -239.14443 
L 145.199969 -241.479301 
L 144.127537 -242.226426 
L 144.192974 -243.666129 
L 145.325742 -247.351701 
L 147.404126 -252.373717 
L 148.624229 -252.420503 
L 151.17982 -255.465217 
L 152.776514 -255.551489 
L 155.107289 -253.413966 
L 158.024354 -255.16675 
L 158.449811 -257.328265 
L 159.42671 -259.421989 
L 160.120138 -262.051343 
L 162.401344 -264.190901 
L 163.310402 -267.824567 
L 164.220174 -268.980798 
L 164.860229 -271.676184 
L 166.028749 -274.983652 
L 169.625907 -278.990238 
L 169.879817 -280.709961 
L 170.352831 -281.644083 
L 168.745301 -283.70324 
L 168.914741 -285.34836 
z
" style="stroke: #d3d3d3"/>
    </defs>
    <g clip-path="url(#pcb7045fcf0)">
     <use xlink:href="#m4d3f10092c" x="0" y="449.28" style="fill: #ffffff; stroke: #d3d3d3"/>
    </g>
   </g>
   <g id="PathCollection_20">
    <defs>
     <path id="me50eee1da3" d="M 113.076539 -276.013247 
L 112.434732 -273.285385 
L 113.654293 -271.755218 
L 115.041859 -269.93921 
L 115.112082 -267.393101 
L 115.921092 -266.323789 
L 115.385984 -254.389944 
L 116.339577 -250.800409 
L 112.922953 -249.690106 
L 112.024007 -251.517658 
L 110.983297 -254.818139 
L 110.719078 -257.404704 
L 111.786992 -262.085839 
L 110.794409 -263.98038 
L 110.535723 -268.069645 
L 110.683958 -271.836126 
L 109.045031 -274.50885 
L 109.420743 -276.123779 
z
" style="stroke: #d3d3d3"/>
    </defs>
    <g clip-path="url(#pcb7045fcf0)">
     <use xlink:href="#me50eee1da3" x="0" y="449.28" style="fill: #ffffff; stroke: #d3d3d3"/>
    </g>
   </g>
   <g id="PathCollection_21">
    <defs>
     <path id="m5267f10597" d="M 109.420743 -276.123779 
L 109.045031 -274.50885 
L 110.683958 -271.836126 
L 110.535723 -268.069645 
L 110.794409 -263.98038 
L 111.786992 -262.085839 
L 110.719078 -257.404704 
L 110.983297 -254.818139 
L 112.024007 -251.517658 
L 112.922953 -249.690106 
L 106.249034 -246.642537 
L 103.867624 -244.856651 
L 100.036455 -243.34566 
L 96.306252 -244.825026 
L 96.543502 -246.879874 
L 94.828468 -251.364102 
L 96.099614 -257.238122 
L 98.016895 -261.60354 
L 97.185945 -268.990315 
L 96.783528 -272.894224 
L 97.017665 -275.833792 
L 104.289626 -276.07788 
L 106.119592 -275.700368 
L 107.505652 -276.536307 
z
" style="stroke: #d3d3d3"/>
    </defs>
    <g clip-path="url(#pcb7045fcf0)">
     <use xlink:href="#m5267f10597" x="0" y="449.28" style="fill: #ffffff; stroke: #d3d3d3"/>
    </g>
   </g>
   <g id="PathCollection_22">
    <defs>
     <path id="m961bd67418" d="M 75.530987 -271.91556 
L 76.101265 -272.386504 
L 77.219879 -271.608132 
L 80.451136 -271.565399 
L 81.297923 -273.078091 
L 82.014624 -272.976985 
L 83.252481 -273.561359 
L 83.790248 -271.344357 
L 84.799782 -271.998608 
L 86.564203 -272.76673 
L 88.392468 -271.636532 
L 89.045336 -269.921521 
L 90.880855 -268.826249 
L 92.403835 -270.130841 
L 94.375282 -270.327824 
L 97.185945 -268.990315 
L 98.016895 -261.60354 
L 96.099614 -257.238122 
L 94.828468 -251.364102 
L 96.543502 -246.879874 
L 96.306252 -244.825026 
L 94.386089 -244.772003 
L 91.466115 -245.790278 
L 88.761036 -245.730129 
L 83.743434 -244.820989 
L 80.779675 -243.317664 
L 76.558876 -241.40674 
L 75.746408 -241.54365 
L 76.173238 -245.83374 
L 76.593746 -246.485655 
L 76.522003 -248.537133 
L 74.802247 -250.717303 
L 73.47495 -251.065184 
L 72.293564 -252.493774 
L 73.288636 -254.804834 
L 72.96047 -257.318727 
L 73.213287 -258.83067 
L 73.880319 -258.83658 
L 74.219726 -261.103208 
L 73.93745 -262.10651 
L 74.369796 -262.8286 
L 75.956404 -263.453167 
L 75.109668 -267.608973 
L 74.248872 -269.753199 
L 74.675244 -271.51369 
z
" style="stroke: #d3d3d3"/>
    </defs>
    <g clip-path="url(#pcb7045fcf0)">
     <use xlink:href="#m961bd67418" x="0" y="449.28" style="fill: #ffffff; stroke: #d3d3d3"/>
    </g>
   </g>
   <g id="PathCollection_23">
    <defs>
     <path id="mbd94a66d6d" d="M 52.631965 -284.233096 
L 54.638209 -284.17982 
L 57.540636 -282.919792 
L 58.46759 -283.03533 
L 58.821417 -283.610159 
L 61.064172 -283.201485 
L 61.686186 -283.493038 
L 61.795737 -281.599989 
L 62.45746 -281.605868 
L 63.592619 -282.29502 
L 64.271769 -282.122544 
L 65.341795 -280.809398 
L 67.100416 -280.396128 
L 68.316829 -281.515405 
L 69.709047 -282.207113 
L 70.758049 -282.931146 
L 71.58328 -282.795568 
L 72.436513 -281.659583 
L 72.844132 -280.233053 
L 74.423901 -278.065214 
L 73.489715 -276.732588 
L 73.230483 -275.047499 
L 74.149771 -275.557035 
L 74.638382 -274.952732 
L 74.332001 -273.409783 
L 75.530987 -271.91556 
L 74.675244 -271.51369 
L 74.248872 -269.753199 
L 75.109668 -267.608973 
L 75.956404 -263.453167 
L 74.369796 -262.8286 
L 73.93745 -262.10651 
L 74.219726 -261.103208 
L 73.880319 -258.83658 
L 73.213287 -258.83067 
L 72.029499 -258.9639 
L 71.089949 -256.870684 
L 69.901611 -256.896076 
L 69.126683 -258.003421 
L 69.489839 -260.090993 
L 67.873105 -263.273212 
L 66.749478 -262.688619 
L 65.847444 -262.572793 
L 64.677239 -262.275096 
L 64.81301 -264.179362 
L 64.205533 -265.537813 
L 64.417019 -267.046882 
L 63.622322 -269.227825 
L 62.558016 -271.082576 
L 59.20898 -271.088337 
L 58.177199 -270.111276 
L 57.015971 -269.99335 
L 56.237317 -268.874772 
L 55.674923 -267.43507 
L 53.310499 -265.152961 
L 51.638451 -268.223952 
L 50.126815 -270.254392 
L 49.094873 -270.926223 
L 48.113134 -271.956682 
L 47.784333 -274.246595 
L 47.247941 -275.387732 
L 46.090007 -276.236315 
L 48.123054 -278.759705 
L 49.383425 -278.66369 
L 50.533226 -279.532282 
L 51.454549 -279.540571 
L 52.16079 -280.226369 
L 51.929113 -281.940306 
L 52.425308 -282.480847 
z
" style="stroke: #d3d3d3"/>
    </defs>
    <g clip-path="url(#pcb7045fcf0)">
     <use xlink:href="#mbd94a66d6d" x="0" y="449.28" style="fill: #ffffff; stroke: #d3d3d3"/>
    </g>
   </g>
   <g id="PathCollection_24">
    <defs>
     <path id="maeee7275da" d="M 40.149287 -283.192536 
L 42.423566 -284.034543 
L 43.789675 -283.868161 
L 44.95244 -284.450063 
L 52.631965 -284.233096 
L 52.425308 -282.480847 
L 51.929113 -281.940306 
L 52.16079 -280.226369 
L 51.454549 -279.540571 
L 50.533226 -279.532282 
L 49.383425 -278.66369 
L 48.123054 -278.759705 
L 46.090007 -276.236315 
L 44.011845 -278.400774 
L 42.278734 -278.74299 
L 41.429037 -280.201774 
L 41.513217 -280.98902 
L 40.326823 -282.086471 
z
" style="stroke: #d3d3d3"/>
    </defs>
    <g clip-path="url(#pcb7045fcf0)">
     <use xlink:href="#maeee7275da" x="0" y="449.28" style="fill: #ffffff; stroke: #d3d3d3"/>
    </g>
   </g>
   <g id="PathCollection_25">
    <defs>
     <path id="mda59aa88cf" d="M 73.213287 -258.83067 
L 72.96047 -257.318727 
L 73.288636 -254.804834 
L 72.293564 -252.493774 
L 73.47495 -251.065184 
L 74.802247 -250.717303 
L 76.522003 -248.537133 
L 76.593746 -246.485655 
L 76.173238 -245.83374 
L 75.746408 -241.54365 
L 74.639889 -241.497744 
L 70.349602 -243.980934 
L 66.627281 -247.944708 
L 63.12771 -250.792878 
L 60.412316 -254.150029 
L 61.482679 -255.814061 
L 61.767107 -257.326518 
L 63.783438 -260.147791 
L 65.847444 -262.572793 
L 66.749478 -262.688619 
L 67.873105 -263.273212 
L 69.489839 -260.090993 
L 69.126683 -258.003421 
L 69.901611 -256.896076 
L 71.089949 -256.870684 
L 72.029499 -258.9639 
z
" style="stroke: #d3d3d3"/>
    </defs>
    <g clip-path="url(#pcb7045fcf0)">
     <use xlink:href="#mda59aa88cf" x="0" y="449.28" style="fill: #ffffff; stroke: #d3d3d3"/>
    </g>
   </g>
   <g id="PathCollection_26">
    <defs>
     <path id="m78c6acfefc" d="M 53.310499 -265.152961 
L 55.674923 -267.43507 
L 56.237317 -268.874772 
L 57.015971 -269.99335 
L 58.177199 -270.111276 
L 59.20898 -271.088337 
L 62.558016 -271.082576 
L 63.622322 -269.227825 
L 64.417019 -267.046882 
L 64.205533 -265.537813 
L 64.81301 -264.179362 
L 64.677239 -262.275096 
L 65.847444 -262.572793 
L 63.783438 -260.147791 
L 61.767107 -257.326518 
L 61.482679 -255.814061 
L 60.412316 -254.150029 
L 59.293052 -254.535904 
L 56.348007 -256.630998 
L 54.278881 -259.415946 
L 53.632257 -261.314247 
z
" style="stroke: #d3d3d3"/>
    </defs>
    <g clip-path="url(#pcb7045fcf0)">
     <use xlink:href="#m78c6acfefc" x="0" y="449.28" style="fill: #ffffff; stroke: #d3d3d3"/>
    </g>
   </g>
   <g id="PathCollection_27">
    <defs>
     <path id="m6d7746442f" d="M 86.564203 -272.76673 
L 86.438279 -275.774642 
L 87.692931 -277.96945 
L 87.691259 -279.722394 
L 91.241347 -284.008104 
L 92.060395 -287.550441 
L 93.275721 -288.810078 
L 95.243956 -288.114237 
L 97.047969 -289.165008 
L 97.691999 -290.490249 
L 101.050908 -292.80148 
L 101.93987 -294.41214 
L 105.941155 -296.54813 
L 108.263496 -297.280743 
L 109.237482 -296.293288 
L 111.892726 -296.316964 
L 111.423203 -293.820857 
L 111.851771 -291.473089 
L 114.016428 -288.104368 
L 114.023345 -285.605564 
L 118.769323 -284.433774 
L 118.520472 -280.893063 
L 117.543727 -279.346172 
L 115.48293 -278.862671 
L 114.537889 -276.599327 
L 113.076539 -276.013247 
L 109.420743 -276.123779 
L 107.505652 -276.536307 
L 106.119592 -275.700368 
L 104.289626 -276.07788 
L 97.017665 -275.833792 
L 96.783528 -272.894224 
L 97.185945 -268.990315 
L 94.375282 -270.327824 
L 92.403835 -270.130841 
L 90.880855 -268.826249 
L 89.045336 -269.921521 
L 88.392468 -271.636532 
z
" style="stroke: #d3d3d3"/>
    </defs>
    <g clip-path="url(#pcb7045fcf0)">
     <use xlink:href="#m6d7746442f" x="0" y="449.28" style="fill: #ffffff; stroke: #d3d3d3"/>
    </g>
   </g>
   <g id="PathCollection_28">
    <defs>
     <path id="m06d2751420" d="M 223.815302 -246.072176 
L 222.423803 -245.519673 
L 219.719025 -245.639569 
L 216.546104 -246.187489 
L 214.978874 -245.741298 
L 214.346332 -244.474856 
L 212.980394 -244.318607 
L 211.316947 -245.420365 
L 206.61778 -242.82072 
L 204.695718 -243.34391 
L 204.115479 -242.942401 
L 202.848018 -239.795988 
L 199.701102 -240.813036 
L 196.614888 -241.325966 
L 193.933345 -243.247808 
L 190.468992 -245.018004 
L 188.202613 -243.34068 
L 186.547975 -240.695502 
L 186.153976 -237.061059 
L 183.439043 -237.351953 
L 180.584706 -238.227554 
L 178.055561 -235.46534 
L 175.82278 -230.61343 
L 175.38225 -232.124238 
L 175.203053 -234.502405 
L 173.279106 -236.17972 
L 171.734919 -238.869469 
L 171.386746 -240.740335 
L 169.412002 -243.461009 
L 169.764236 -245.013159 
L 169.363335 -247.206402 
L 169.727094 -251.241739 
L 170.74756 -252.186433 
L 172.921066 -257.457633 
L 176.402537 -257.848408 
L 177.19169 -259.185496 
L 177.886913 -259.083966 
L 178.92542 -257.90684 
L 184.236904 -259.895483 
L 186.038839 -261.923959 
L 188.24419 -263.739793 
L 187.844335 -265.567591 
L 189.031601 -266.044822 
L 193.080462 -265.722247 
L 197.043704 -268.126622 
L 200.104974 -273.78416 
L 202.237701 -275.881434 
L 204.887361 -276.76443 
L 205.352731 -274.54794 
L 207.756217 -271.307516 
L 207.763184 -269.191369 
L 207.076573 -267.032131 
L 207.341966 -265.418967 
L 208.794277 -263.923756 
L 211.989374 -261.653208 
L 214.289381 -259.553459 
L 214.327838 -257.86399 
L 217.157835 -255.155999 
L 218.914118 -252.905019 
L 219.981006 -249.783176 
L 223.13444 -247.722873 
z
" style="stroke: #d3d3d3"/>
    </defs>
    <g clip-path="url(#pcb7045fcf0)">
     <use xlink:href="#m06d2751420" x="0" y="449.28" style="fill: #ffffff; stroke: #d3d3d3"/>
    </g>
   </g>
   <g id="PathCollection_29">
    <defs>
     <path id="m02a75796a0" d="M 186.153976 -237.061059 
L 185.89316 -233.912813 
L 184.619854 -231.12486 
L 183.786525 -227.871487 
L 183.252879 -223.249719 
L 183.472279 -220.293713 
L 182.782949 -218.483741 
L 182.678175 -216.570809 
L 182.193419 -214.906961 
L 179.413033 -212.393088 
L 177.481377 -209.706642 
L 175.661682 -204.641011 
L 175.821996 -200.352092 
L 174.763558 -198.684149 
L 172.320045 -196.139479 
L 169.861509 -192.874618 
L 168.278191 -193.797323 
L 167.996258 -195.272008 
L 165.697225 -195.32343 
L 164.271147 -193.32923 
L 163.158085 -193.859773 
L 161.561206 -195.647041 
L 160.293908 -194.77073 
L 158.612775 -192.521765 
L 155.095507 -198.039713 
L 158.2879 -200.916383 
L 156.673022 -204.363505 
L 158.114758 -205.674562 
L 160.96275 -206.313152 
L 161.289363 -208.624107 
L 163.557787 -206.119956 
L 167.288975 -205.900626 
L 168.576192 -208.364597 
L 169.100238 -211.831955 
L 168.632933 -215.904241 
L 166.631408 -218.988863 
L 168.468081 -225.029664 
L 167.415246 -226.06622 
L 164.269063 -225.641198 
L 163.095375 -228.335956 
L 163.411314 -230.6106 
L 168.743536 -230.406078 
L 172.155888 -229.03015 
L 175.510838 -227.797645 
L 175.82278 -230.61343 
L 178.055561 -235.46534 
L 180.584706 -238.227554 
L 183.439043 -237.351953 
z
" style="stroke: #d3d3d3"/>
    </defs>
    <g clip-path="url(#pcb7045fcf0)">
     <use xlink:href="#m02a75796a0" x="0" y="449.28" style="fill: #ffffff; stroke: #d3d3d3"/>
    </g>
   </g>
   <g id="PathCollection_30">
    <defs>
     <path id="mc0ae95e0ed" d="M 155.807275 -230.579073 
L 157.817089 -230.921691 
L 160.382041 -230.223246 
L 162.886464 -230.89488 
L 163.411314 -230.6106 
L 163.095375 -228.335956 
L 164.269063 -225.641198 
L 167.415246 -226.06622 
L 168.468081 -225.029664 
L 166.631408 -218.988863 
L 168.632933 -215.904241 
L 169.100238 -211.831955 
L 168.576192 -208.364597 
L 167.288975 -205.900626 
L 163.557787 -206.119956 
L 161.289363 -208.624107 
L 160.96275 -206.313152 
L 158.114758 -205.674562 
L 156.673022 -204.363505 
L 158.2879 -200.916383 
L 155.095507 -198.039713 
L 150.714976 -203.300672 
L 147.896591 -207.603062 
L 145.30836 -212.990345 
L 145.439931 -214.723139 
L 146.360422 -216.390757 
L 147.386609 -220.188053 
L 148.244612 -224.055339 
L 149.671682 -224.356668 
L 155.821622 -224.303302 
z
" style="stroke: #d3d3d3"/>
    </defs>
    <g clip-path="url(#pcb7045fcf0)">
     <use xlink:href="#mc0ae95e0ed" x="0" y="449.28" style="fill: #ffffff; stroke: #d3d3d3"/>
    </g>
   </g>
   <g id="PathCollection_31">
    <defs>
     <path id="me84d90385e" d="M 148.931208 -230.69804 
L 155.807275 -230.579073 
L 155.821622 -224.303302 
L 149.671682 -224.356668 
L 148.244612 -224.055339 
L 147.454978 -224.841808 
z
" style="stroke: #d3d3d3"/>
    </defs>
    <g clip-path="url(#pcb7045fcf0)">
     <use xlink:href="#me84d90385e" x="0" y="449.28" style="fill: #ffffff; stroke: #d3d3d3"/>
    </g>
   </g>
   <g id="PathCollection_32">
    <defs>
     <path id="m82928b13fd" d="M 237.916493 -175.344497 
L 239.660949 -174.022218 
L 241.327158 -173.152545 
L 243.986418 -172.278661 
L 246.351473 -170.720167 
L 248.304257 -168.405366 
L 249.313613 -164.004288 
L 248.582188 -162.600201 
L 247.68461 -158.40293 
L 248.42257 -154.117636 
L 247.084446 -152.31889 
L 245.747459 -147.523116 
L 247.908584 -146.187322 
L 235.267757 -141.940212 
L 235.616816 -138.277995 
L 232.479725 -137.574125 
L 230.109232 -135.526782 
L 229.591468 -133.746288 
L 228.112981 -133.342533 
L 224.503791 -129.124422 
L 222.211726 -125.810095 
L 220.826943 -125.691358 
L 219.497198 -126.280873 
L 214.913466 -126.841432 
L 214.175736 -127.22403 
L 214.144808 -127.649034 
L 212.523315 -128.803748 
L 209.858391 -129.098734 
L 206.50044 -127.934353 
L 203.798345 -131.135995 
L 200.986779 -135.335379 
L 201.055565 -151.72708 
L 209.721463 -151.661952 
L 209.362286 -153.4454 
L 209.978569 -155.381529 
L 209.239978 -157.807436 
L 209.709271 -160.317592 
L 209.264172 -161.925372 
L 210.706381 -161.795024 
L 210.948677 -160.185424 
L 212.906359 -160.310368 
L 215.558808 -159.832818 
L 216.95249 -157.483123 
L 220.292125 -156.761608 
L 222.847926 -158.394908 
L 223.773859 -155.684279 
L 226.964902 -154.961785 
L 228.486654 -152.75941 
L 230.175738 -149.91706 
L 233.357634 -149.874377 
L 233.057892 -155.445658 
L 231.906414 -154.505492 
L 229.005916 -156.517838 
L 227.884378 -157.438208 
L 228.430486 -162.634735 
L 229.206279 -168.772632 
L 228.278844 -171.061062 
L 229.490004 -174.375485 
L 230.618565 -174.996325 
L 236.265347 -175.873087 
z
" style="stroke: #d3d3d3"/>
    </defs>
    <g clip-path="url(#pcb7045fcf0)">
     <use xlink:href="#m82928b13fd" x="0" y="449.28" style="fill: #ffffff; stroke: #d3d3d3"/>
    </g>
   </g>
   <g id="PathCollection_33">
    <defs>
     <path id="mf6de8d23ad" d="M 246.351473 -170.720167 
L 250.451288 -169.752069 
L 251.276189 -168.317429 
L 252.664126 -165.899103 
L 253.726912 -158.854092 
L 252.492772 -154.922778 
L 253.534783 -148.208557 
L 254.978604 -148.283748 
L 256.442232 -146.62062 
L 258.095208 -142.893224 
L 258.282699 -136.277923 
L 256.46905 -135.196017 
L 255.120672 -131.634302 
L 252.509639 -134.805046 
L 252.285303 -138.427879 
L 253.207191 -140.819935 
L 253.010724 -142.883109 
L 251.400885 -144.18684 
L 250.251226 -143.713417 
L 247.908584 -146.187322 
L 245.747459 -147.523116 
L 247.084446 -152.31889 
L 248.42257 -154.117636 
L 247.68461 -158.40293 
L 248.582188 -162.600201 
L 249.313613 -164.004288 
L 248.304257 -168.405366 
z
" style="stroke: #d3d3d3"/>
    </defs>
    <g clip-path="url(#pcb7045fcf0)">
     <use xlink:href="#mf6de8d23ad" x="0" y="449.28" style="fill: #ffffff; stroke: #d3d3d3"/>
    </g>
   </g>
   <g id="PathCollection_34">
    <defs>
     <path id="m87c731a6e7" d="M 253.726912 -158.854092 
L 256.875764 -159.272675 
L 261.864511 -157.814388 
L 262.967568 -158.468448 
L 265.876465 -158.601848 
L 267.398465 -160.154549 
L 269.902613 -160.069579 
L 274.519201 -162.080483 
L 277.919153 -165.084697 
L 277.919138 -165.084708 
L 277.919148 -165.084717 
L 278.539013 -162.761363 
L 278.231141 -157.603434 
L 278.616027 -153.066473 
L 278.520778 -145.000993 
L 279.16247 -142.477491 
L 277.796477 -138.799968 
L 276.063073 -135.23026 
L 273.321347 -132.046804 
L 269.489645 -130.097288 
L 264.773272 -127.610395 
L 259.963799 -122.119881 
L 258.361167 -121.187233 
L 255.399721 -117.5612 
L 253.685778 -116.382655 
L 253.232921 -112.752112 
L 255.032652 -108.903118 
L 255.728625 -105.927571 
L 255.72525 -104.411516 
L 256.446914 -104.664814 
L 256.148616 -99.702516 
L 255.409402 -97.356776 
L 256.32013 -96.493113 
L 255.643031 -94.396105 
L 253.904747 -92.605114 
L 250.55435 -90.905399 
L 245.680672 -88.186935 
L 243.883302 -86.332546 
L 244.157819 -84.222427 
L 245.157716 -83.885675 
L 244.733181 -81.25397 
L 241.744535 -81.295793 
L 241.469646 -83.505819 
L 240.946907 -85.751149 
L 240.657061 -87.551196 
L 241.513732 -93.153343 
L 240.563544 -96.733164 
L 238.799865 -103.846736 
L 243.184487 -109.60329 
L 244.339722 -113.269809 
L 244.96431 -113.732928 
L 245.494423 -116.731356 
L 244.874053 -118.241646 
L 245.133423 -122.056513 
L 246.007998 -125.600127 
L 246.132431 -132.085248 
L 244.024361 -133.734349 
L 242.068264 -134.107385 
L 241.200311 -135.378119 
L 239.30459 -136.462488 
L 235.860302 -136.360246 
L 235.616816 -138.277995 
L 235.267757 -141.940212 
L 247.908584 -146.187322 
L 250.251226 -143.713417 
L 251.400885 -144.18684 
L 253.010724 -142.883109 
L 253.207191 -140.819935 
L 252.285303 -138.427879 
L 252.509639 -134.805046 
L 255.120672 -131.634302 
L 256.46905 -135.196017 
L 258.282699 -136.277923 
L 258.095208 -142.893224 
L 256.442232 -146.62062 
L 254.978604 -148.283748 
L 253.534783 -148.208557 
L 252.492772 -154.922778 
z
" style="stroke: #d3d3d3"/>
    </defs>
    <g clip-path="url(#pcb7045fcf0)">
     <use xlink:href="#m87c731a6e7" x="0" y="449.28" style="fill: #ffffff; stroke: #d3d3d3"/>
    </g>
   </g>
   <g id="PathCollection_35">
    <defs>
     <path id="me8906c5a08" d="M 241.744535 -81.295793 
L 240.877915 -79.078711 
L 238.561882 -78.540293 
L 236.280575 -81.245708 
L 236.283963 -82.974074 
L 237.407649 -84.852936 
L 237.816495 -86.311824 
L 238.971207 -86.669051 
L 240.946907 -85.751149 
L 241.469646 -83.505819 
z
" style="stroke: #d3d3d3"/>
    </defs>
    <g clip-path="url(#pcb7045fcf0)">
     <use xlink:href="#me8906c5a08" x="0" y="449.28" style="fill: #ffffff; stroke: #d3d3d3"/>
    </g>
   </g>
   <g id="PathCollection_36">
    <path d="M 163.158085 255.420227 
L 161.633118 256.514926 
L 160.956372 257.853845 
L 160.848545 260.123732 
L 159.782724 260.673617 
L 158.612775 256.758235 
L 160.293908 254.50927 
L 161.561206 253.632959 
z
" clip-path="url(#pcb7045fcf0)" style="fill: #ffffff; stroke: #d3d3d3"/>
    <path d="M 160.392083 262.288069 
L 162.122946 261.58848 
L 163.344747 261.685851 
L 164.81589 261.06045 
L 177.252344 261.129314 
L 178.323825 265.007234 
L 179.559897 268.12624 
L 180.542181 269.807662 
L 182.177869 272.525175 
L 184.952798 272.10493 
L 186.333451 271.373923 
L 188.661687 272.107884 
L 189.282005 270.808281 
L 190.316711 267.778506 
L 192.925168 267.575338 
L 193.146984 266.674172 
L 195.294192 266.654551 
L 194.937332 268.528234 
L 200.041431 268.482823 
L 200.13186 271.753672 
L 200.991862 273.758333 
L 200.387155 276.888926 
L 200.710212 280.080819 
L 202.11715 282.005736 
L 201.923647 288.172783 
L 202.955806 287.697754 
L 204.77266 287.82488 
L 207.359399 287.049216 
L 209.264172 287.354628 
L 209.709271 288.962408 
L 209.239978 291.472564 
L 209.978569 293.898471 
L 209.362286 295.8346 
L 209.721463 297.618048 
L 201.055565 297.55292 
L 200.986779 313.944621 
L 203.798345 318.144005 
L 206.50044 321.345647 
L 198.977074 323.432087 
L 189.03873 322.707621 
L 186.149861 320.253559 
L 169.501899 320.474663 
L 168.891652 320.834743 
L 166.370248 318.517141 
L 163.69871 318.363971 
L 161.266348 319.237285 
L 159.322999 320.212249 
L 158.820487 316.988208 
L 159.237264 312.472515 
L 160.515052 307.763102 
L 160.66498 305.552739 
L 161.881848 300.904793 
L 162.817882 298.789593 
L 165.127526 295.409694 
L 166.413594 293.109078 
L 166.772414 289.275966 
L 166.496384 286.340602 
L 165.210162 284.488049 
L 164.03663 281.342387 
L 162.951669 278.229399 
L 163.158446 277.150504 
L 164.415039 275.091853 
L 163.064835 270.072003 
L 162.155582 266.591118 
L 160.00393 263.299543 
z
" clip-path="url(#pcb7045fcf0)" style="fill: #ffffff; stroke: #d3d3d3"/>
   </g>
   <g id="PathCollection_37">
    <defs>
     <path id="m5f80f3bde1" d="M 236.91374 -206.197572 
L 237.154438 -204.144529 
L 238.06134 -202.962713 
L 238.095771 -201.268539 
L 237.050817 -200.177761 
L 235.39945 -197.459763 
L 233.862386 -195.572195 
L 232.11665 -195.324237 
L 231.863323 -201.609457 
L 230.805475 -203.979583 
L 233.370127 -203.569808 
L 234.669209 -206.538415 
z
" style="stroke: #d3d3d3"/>
    </defs>
    <g clip-path="url(#pcb7045fcf0)">
     <use xlink:href="#m5f80f3bde1" x="0" y="449.28" style="fill: #ffffff; stroke: #d3d3d3"/>
    </g>
   </g>
   <g id="PathCollection_38">
    <defs>
     <path id="m0eda5e3087" d="M 316.064395 -153.941619 
L 317.06468 -151.743362 
L 317.922053 -148.33361 
L 318.25142 -142.132333 
L 319.183257 -139.724821 
L 318.623302 -137.258517 
L 317.800108 -135.746607 
L 316.579494 -138.759035 
L 315.712636 -137.237266 
L 316.266169 -133.431662 
L 315.761972 -131.256057 
L 314.550527 -130.071591 
L 314.004525 -125.73314 
L 311.978884 -119.775405 
L 309.456214 -112.7529 
L 306.209167 -103.137942 
L 304.091913 -96.112903 
L 301.787188 -90.2756 
L 298.450379 -89.086009 
L 294.806443 -86.963649 
L 292.624714 -88.244506 
L 289.608141 -90.040883 
L 288.704429 -92.694046 
L 288.756765 -97.161221 
L 287.614526 -101.188008 
L 287.479718 -104.829917 
L 288.430276 -108.48623 
L 290.348151 -109.365498 
L 290.463459 -111.056647 
L 292.639023 -114.91368 
L 293.198911 -118.159675 
L 292.391146 -120.575797 
L 291.794112 -123.797917 
L 291.713423 -128.514092 
L 293.294416 -131.381956 
L 294.006837 -134.637314 
L 296.071313 -134.826544 
L 298.424798 -135.879625 
L 299.999943 -136.809345 
L 301.817001 -136.878402 
L 304.322649 -139.808841 
L 307.890695 -142.979465 
L 309.26499 -145.571855 
L 308.807054 -147.77584 
L 310.54111 -147.155796 
L 313.00569 -150.742028 
L 313.227202 -153.848405 
L 314.711403 -156.161033 
z
" style="stroke: #d3d3d3"/>
    </defs>
    <g clip-path="url(#pcb7045fcf0)">
     <use xlink:href="#m0eda5e3087" x="0" y="449.28" style="fill: #ffffff; stroke: #d3d3d3"/>
    </g>
   </g>
   <g id="PathCollection_39">
    <defs>
     <path id="m2c9c027e46" d="M 40.523377 -289.442045 
L 45.060718 -289.589753 
L 46.104165 -290.811145 
L 47.427508 -290.894295 
L 48.958354 -289.624679 
L 50.245394 -289.600551 
L 51.687327 -290.469192 
L 52.403348 -288.978081 
L 50.510542 -287.819613 
L 48.711478 -287.910577 
L 47.01914 -289.001147 
L 45.378569 -287.80921 
L 44.629993 -287.766794 
L 43.570248 -287.043649 
L 39.793617 -287.152645 
z
" style="stroke: #d3d3d3"/>
    </defs>
    <g clip-path="url(#pcb7045fcf0)">
     <use xlink:href="#m2c9c027e46" x="0" y="449.28" style="fill: #ffffff; stroke: #d3d3d3"/>
    </g>
   </g>
   <g id="PathCollection_40">
    <defs>
     <path id="m8a252e59eb" d="M 153.985251 -374.020403 
L 153.071704 -382.843046 
L 150.897258 -384.817762 
L 150.971957 -386.000485 
L 148.147293 -388.906407 
L 148.178963 -392.569724 
L 150.763995 -395.274423 
L 152.042163 -399.261069 
L 151.927092 -403.850046 
L 152.935704 -406.312004 
L 157.134413 -408.243468 
L 159.646171 -407.669591 
L 159.308675 -405.246005 
L 162.592184 -407.009652 
L 162.771695 -406.089537 
L 160.717202 -403.738726 
L 160.492769 -401.514441 
L 161.673176 -400.317645 
L 160.825726 -396.137882 
L 158.150361 -393.702321 
L 158.639514 -391.055629 
L 160.582464 -390.972967 
L 161.348623 -388.659054 
L 162.729438 -387.897019 
L 162.233944 -384.145947 
L 160.270729 -382.740807 
L 158.9752 -381.170686 
L 156.199213 -379.279517 
L 156.448434 -377.24331 
L 155.955438 -375.163019 
z
" style="stroke: #d3d3d3"/>
    </defs>
    <g clip-path="url(#pcb7045fcf0)">
     <use xlink:href="#m8a252e59eb" x="0" y="449.28" style="fill: #ffffff; stroke: #d3d3d3"/>
    </g>
   </g>
   <g id="PathCollection_41">
    <defs>
     <path id="m6df530d650" d="M 81.563186 -359.58087 
L 81.784279 -360.546273 
L 81.832939 -360.879726 
L 82.714125 -366.76839 
L 89.565821 -370.423148 
L 93.552272 -371.177036 
L 96.920676 -372.504769 
L 98.768188 -374.975074 
L 103.559869 -376.924087 
L 104.265776 -380.561838 
L 106.542905 -380.98961 
L 108.539111 -382.802177 
L 113.648356 -383.627261 
L 114.616383 -385.527566 
L 113.765193 -386.565285 
L 113.225701 -391.706792 
L 113.458457 -394.658079 
L 112.542579 -397.757198 
L 116.54605 -400.394105 
L 120.691336 -401.231424 
L 123.333769 -403.216336 
L 127.110145 -404.678039 
L 133.479987 -405.533086 
L 139.622801 -405.922004 
L 141.39074 -405.209944 
L 145.086759 -407.098462 
L 149.016694 -407.135443 
L 150.387823 -406.021066 
L 152.935704 -406.312004 
L 151.927092 -403.850046 
L 152.042163 -399.261069 
L 150.763995 -395.274423 
L 148.178963 -392.569724 
L 148.147293 -388.906407 
L 150.971957 -386.000485 
L 150.897258 -384.817762 
L 153.071704 -382.843046 
L 153.985251 -374.020403 
L 154.905519 -369.658344 
L 154.94831 -367.356944 
L 153.970866 -363.306788 
L 154.094747 -361.038253 
L 153.40797 -358.310243 
L 153.540511 -355.170039 
L 151.833396 -353.079357 
L 153.941479 -349.426024 
L 153.958353 -347.274313 
L 155.208628 -344.46988 
L 157.126347 -345.391831 
L 160.149276 -343.052876 
L 161.744789 -339.895228 
L 147.43783 -330.250272 
L 135.101003 -320.25896 
L 129.210122 -317.984215 
L 124.649347 -317.484507 
L 124.820149 -320.729848 
L 122.991895 -321.558755 
L 120.563448 -323.015501 
L 119.775467 -325.399973 
L 107.100435 -336.465104 
L 94.798601 -347.463338 
z
" style="stroke: #d3d3d3"/>
    </defs>
    <g clip-path="url(#pcb7045fcf0)">
     <use xlink:href="#m6df530d650" x="0" y="449.28" style="fill: #ffffff; stroke: #d3d3d3"/>
    </g>
   </g>
   <g id="PathCollection_42">
    <defs>
     <path id="mcdeda11295" d="M 261.196516 -293.706862 
L 260.704151 -295.769084 
L 262.277195 -303.324527 
L 262.581307 -306.735364 
L 263.826791 -308.307082 
L 266.8245 -309.149461 
L 268.796562 -312.071785 
L 271.397683 -306.14083 
L 272.699737 -301.428394 
L 275.050927 -298.924412 
L 280.872245 -294.062203 
L 283.281697 -291.124014 
L 285.637789 -288.146912 
L 287.000486 -286.373055 
L 289.101039 -284.819342 
L 287.88826 -283.557275 
L 286.089989 -284.005956 
L 284.611291 -285.677851 
L 282.799287 -288.704824 
L 280.901228 -290.362227 
L 279.76728 -292.142845 
L 276.088842 -294.20908 
L 273.245589 -294.270693 
L 272.212207 -295.347619 
L 269.819884 -294.136339 
L 267.237274 -296.474083 
L 266.052023 -292.629757 
z
" style="stroke: #d3d3d3"/>
    </defs>
    <g clip-path="url(#pcb7045fcf0)">
     <use xlink:href="#mcdeda11295" x="0" y="449.28" style="fill: #ffffff; stroke: #d3d3d3"/>
    </g>
   </g>
   <g id="PathCollection_43">
    <defs>
     <path id="mbd266a34a0" d="M 112.542579 -397.757198 
L 113.458457 -394.658079 
L 113.225701 -391.706792 
L 113.765193 -386.565285 
L 114.616383 -385.527566 
L 113.648356 -383.627261 
L 108.539111 -382.802177 
L 106.542905 -380.98961 
L 104.265776 -380.561838 
L 103.559869 -376.924087 
L 98.768188 -374.975074 
L 96.920676 -372.504769 
L 93.552272 -371.177036 
L 89.565821 -370.423148 
L 82.714125 -366.76839 
L 81.832939 -360.879726 
L 81.235852 -360.879726 
L 80.92385 -358.209175 
L 78.467767 -358.048405 
L 77.026913 -356.912589 
L 75.23806 -356.912589 
L 73.913289 -357.560959 
L 70.516125 -357.024842 
L 68.619632 -353.128253 
L 67.326155 -352.761621 
L 64.494563 -346.43577 
L 58.136701 -341.00185 
L 55.810575 -334.023676 
L 53.843056 -331.74775 
L 53.107929 -329.920167 
L 43.943854 -329.514866 
L 43.874345 -329.522865 
L 44.404374 -331.873491 
L 46.156015 -333.254259 
L 47.863818 -335.891974 
L 47.861994 -337.602988 
L 49.787937 -341.165001 
L 52.514882 -344.368306 
L 53.986005 -345.179169 
L 55.507063 -348.111127 
L 56.036109 -350.784404 
L 57.979068 -353.880651 
L 60.914246 -355.703334 
L 64.270414 -360.798654 
L 64.354262 -360.86838 
L 66.652274 -362.779737 
L 70.383809 -363.329012 
L 74.03274 -366.723027 
L 76.207505 -368.043822 
L 80.1462 -372.174526 
L 80.256043 -378.305016 
L 82.477313 -382.526683 
L 83.46491 -385.1032 
L 86.521565 -388.400314 
L 90.726653 -390.624408 
L 93.890076 -392.633325 
L 97.320409 -397.64833 
L 99.045675 -400.611623 
L 101.775385 -400.588466 
L 103.648202 -398.541155 
L 107.249267 -398.874924 
L 110.930362 -397.808881 
z
" style="stroke: #d3d3d3"/>
    </defs>
    <g clip-path="url(#pcb7045fcf0)">
     <use xlink:href="#mbd266a34a0" x="0" y="449.28" style="fill: #ffffff; stroke: #d3d3d3"/>
    </g>
   </g>
   <g id="PathCollection_44">
    <defs>
     <path id="m6d4bf690fc" d="M 261.723513 -332.452573 
L 245.720358 -332.452573 
L 230.065128 -332.452573 
L 213.845019 -332.452573 
L 213.861206 -351.016202 
L 213.879275 -368.737642 
L 212.72403 -372.720774 
L 213.723964 -375.765418 
L 213.132527 -377.870197 
L 214.523445 -380.227457 
L 219.61677 -380.308578 
L 223.315485 -379.010291 
L 227.146911 -377.557822 
L 228.940425 -376.791701 
L 231.866137 -378.349866 
L 233.410644 -379.757459 
L 236.777068 -380.162233 
L 239.520269 -379.542401 
L 240.648515 -377.104415 
L 241.483467 -378.710982 
L 244.604319 -377.549461 
L 247.61144 -377.271 
L 249.445446 -378.509586 
L 249.445465 -378.509599 
L 251.930702 -371.32226 
L 252.375769 -370.037816 
L 251.375605 -368.047955 
L 250.69964 -364.299881 
L 249.742071 -361.710567 
L 248.86242 -360.841248 
L 247.494922 -362.447331 
L 245.647707 -364.665795 
L 242.619101 -371.767004 
L 242.236732 -371.319043 
L 244.02849 -366.093456 
L 246.607294 -361.096174 
L 249.870311 -353.319374 
L 251.435439 -350.595346 
L 252.819256 -347.760625 
L 256.616178 -342.190226 
L 255.85577 -341.311304 
L 256.110641 -338.030812 
L 260.973661 -333.49037 
z
" style="stroke: #d3d3d3"/>
    </defs>
    <g clip-path="url(#pcb7045fcf0)">
     <use xlink:href="#m6d4bf690fc" x="0" y="449.28" style="fill: #ffffff; stroke: #d3d3d3"/>
    </g>
   </g>
   <g id="PathCollection_45">
    <defs>
     <path id="m8e52619406" d="M 213.845019 -332.452573 
L 213.837305 -322.306651 
L 209.158549 -322.291167 
L 209.099101 -320.153234 
L 193.015219 -329.892207 
L 177.210267 -339.582557 
L 173.057505 -336.820464 
L 170.139214 -334.94054 
L 167.991502 -337.717885 
L 161.744789 -339.895228 
L 160.149276 -343.052876 
L 157.126347 -345.391831 
L 155.208628 -344.46988 
L 153.958353 -347.274313 
L 153.941479 -349.426024 
L 151.833396 -353.079357 
L 153.540511 -355.170039 
L 153.40797 -358.310243 
L 154.094747 -361.038253 
L 153.970866 -363.306788 
L 154.94831 -367.356944 
L 154.905519 -369.658344 
L 153.985251 -374.020403 
L 155.955438 -375.163019 
L 156.448434 -377.24331 
L 156.199213 -379.279517 
L 158.9752 -381.170686 
L 160.270729 -382.740807 
L 162.233944 -384.145947 
L 162.729438 -387.897019 
L 167.062206 -386.21751 
L 168.684412 -386.637551 
L 171.804081 -385.822814 
L 176.727374 -383.637984 
L 178.293991 -379.280452 
L 181.692846 -378.326862 
L 187.027269 -376.267562 
L 191.052157 -373.817348 
L 192.97097 -375.096468 
L 194.877763 -377.361024 
L 194.087375 -381.123457 
L 195.350897 -383.506435 
L 198.151018 -385.79761 
L 200.779762 -386.463675 
L 205.901245 -385.464335 
L 207.174032 -383.277805 
L 208.593338 -383.257098 
L 209.801363 -382.421726 
L 213.593134 -381.846923 
L 214.523445 -380.227457 
L 213.132527 -377.870197 
L 213.723964 -375.765418 
L 212.72403 -372.720774 
L 213.879275 -368.737642 
L 213.861206 -351.016202 
z
" style="stroke: #d3d3d3"/>
    </defs>
    <g clip-path="url(#pcb7045fcf0)">
     <use xlink:href="#m8e52619406" x="0" y="449.28" style="fill: #ffffff; stroke: #d3d3d3"/>
    </g>
   </g>
   <g id="PathCollection_46">
    <defs>
     <path id="m996a1354ad" d="M 309.577689 -260.477962 
L 298.008527 -244.862235 
L 292.516884 -244.632701 
L 288.802939 -240.960222 
L 286.098262 -240.864036 
L 284.960744 -239.221468 
L 282.076055 -239.222396 
L 280.356263 -240.983304 
L 276.520165 -238.803923 
L 275.289543 -236.631952 
L 272.470215 -237.042056 
L 271.53098 -237.643168 
L 270.543193 -237.499525 
L 269.208191 -237.55214 
L 263.831378 -241.977638 
L 260.894172 -241.977638 
L 259.439705 -243.692084 
L 259.415818 -246.615249 
L 257.21828 -247.488816 
L 254.677167 -253.15276 
L 252.743022 -254.358899 
L 251.985696 -256.438641 
L 249.829334 -258.972558 
L 247.244052 -259.344867 
L 248.646471 -262.304621 
L 250.874086 -262.432305 
L 251.483776 -264.018483 
L 251.370651 -268.684853 
L 252.534604 -274.110786 
L 254.493263 -275.561764 
L 254.878598 -277.678593 
L 256.598537 -281.631151 
L 259.061794 -284.192256 
L 260.641979 -289.278852 
L 261.196516 -293.706862 
L 266.052023 -292.629757 
L 267.237274 -296.474083 
L 269.819884 -294.136339 
L 272.212207 -295.347619 
L 273.245589 -294.270693 
L 276.088842 -294.20908 
L 279.76728 -292.142845 
L 280.901228 -290.362227 
L 282.799287 -288.704824 
L 284.611291 -285.677851 
L 286.089989 -284.005956 
L 284.698401 -281.719788 
L 283.360836 -279.294683 
L 283.727416 -277.865733 
L 283.838993 -276.290683 
L 286.175954 -276.204146 
L 287.171506 -276.57136 
L 288.126311 -275.648308 
L 287.267127 -273.812787 
L 288.892188 -270.958477 
L 290.504702 -268.461247 
L 292.153973 -266.609208 
L 306.043947 -260.44616 
z
" style="stroke: #d3d3d3"/>
    </defs>
    <g clip-path="url(#pcb7045fcf0)">
     <use xlink:href="#m996a1354ad" x="0" y="449.28" style="fill: #ffffff; stroke: #d3d3d3"/>
    </g>
   </g>
   <g id="PathCollection_47">
    <defs>
     <path id="mc19bad338b" d="M 286.089989 -284.005956 
L 287.88826 -283.557275 
L 289.101039 -284.819342 
L 290.142228 -283.219916 
L 290.083833 -281.072948 
L 287.743821 -279.835092 
L 289.581158 -278.419229 
L 288.126311 -275.648308 
L 287.171506 -276.57136 
L 286.175954 -276.204146 
L 283.838993 -276.290683 
L 283.727416 -277.865733 
L 283.360836 -279.294683 
L 284.698401 -281.719788 
z
" style="stroke: #d3d3d3"/>
    </defs>
    <g clip-path="url(#pcb7045fcf0)">
     <use xlink:href="#mc19bad338b" x="0" y="449.28" style="fill: #ffffff; stroke: #d3d3d3"/>
    </g>
   </g>
   <g id="PathCollection_48">
    <defs>
     <path id="m13974b03d4" d="M 313.823157 -278.153063 
L 313.823157 -278.153063 
L 313.800787 -278.068424 
L 313.873099 -275.935497 
L 314.071471 -270.707293 
L 314.166632 -268.000869 
L 312.37812 -264.813289 
L 309.577689 -260.477962 
L 306.043947 -260.44616 
L 292.153973 -266.609208 
L 290.504702 -268.461247 
L 288.892188 -270.958477 
L 287.267127 -273.812787 
L 288.126311 -275.648308 
L 289.581158 -278.419229 
L 290.970162 -277.46504 
L 291.856146 -275.323489 
L 293.809382 -273.154422 
L 295.887345 -273.137147 
L 299.78829 -274.462799 
L 304.318926 -275.076812 
L 307.939112 -276.685893 
L 309.998142 -277.026789 
L 311.452564 -277.971188 
L 313.823163 -278.153086 
z
" style="stroke: #d3d3d3"/>
    </defs>
    <g clip-path="url(#pcb7045fcf0)">
     <use xlink:href="#m13974b03d4" x="0" y="449.28" style="fill: #ffffff; stroke: #d3d3d3"/>
    </g>
   </g>
   <g id="PathCollection_49">
    <defs>
     <path id="md6020a4dfa" d="M 251.441507 -213.831634 
L 242.827325 -213.42815 
L 238.192759 -213.494963 
L 236.709414 -212.868521 
L 234.181737 -211.258704 
L 233.159056 -211.790719 
L 233.196961 -215.722843 
L 234.176939 -217.715817 
L 234.414285 -221.90259 
L 235.302208 -224.327559 
L 236.915718 -227.047361 
L 238.537497 -228.432433 
L 239.892841 -230.284011 
L 238.197709 -230.990133 
L 238.438194 -237.085974 
L 238.438162 -237.086004 
L 240.172052 -238.507439 
L 242.861253 -237.341912 
L 246.255435 -238.561744 
L 249.226134 -238.549653 
L 251.809889 -240.946127 
L 253.830974 -237.327996 
L 254.337139 -234.711988 
L 256.217623 -228.726779 
L 254.688088 -224.925406 
L 252.611793 -221.472908 
L 251.401694 -219.359487 
z
" style="stroke: #d3d3d3"/>
    </defs>
    <g clip-path="url(#pcb7045fcf0)">
     <use xlink:href="#md6020a4dfa" x="0" y="449.28" style="fill: #ffffff; stroke: #d3d3d3"/>
    </g>
   </g>
   <g id="PathCollection_50">
    <defs>
     <path id="m94ee046ec2" d="M 236.709414 -212.868521 
L 238.384264 -209.925741 
L 238.134698 -206.857723 
L 236.913724 -206.197701 
L 236.91374 -206.197572 
L 234.669209 -206.538415 
L 233.370127 -203.569808 
L 230.805475 -203.979583 
L 231.200817 -206.831854 
L 231.781812 -207.233892 
L 231.942074 -210.336996 
L 233.159056 -211.790719 
L 234.181737 -211.258704 
z
" style="stroke: #d3d3d3"/>
    </defs>
    <g clip-path="url(#pcb7045fcf0)">
     <use xlink:href="#m94ee046ec2" x="0" y="449.28" style="fill: #ffffff; stroke: #d3d3d3"/>
    </g>
   </g>
   <g id="PathCollection_51">
    <defs>
     <path id="m2a89bf2510" d="M 238.438162 -237.086004 
L 234.710851 -240.549156 
L 233.701668 -242.774416 
L 231.354735 -241.672347 
L 229.402491 -242.015217 
L 228.274728 -241.140317 
L 226.37846 -241.7721 
L 223.815302 -246.072176 
L 223.13444 -247.722873 
L 219.981006 -249.783176 
L 218.914118 -252.905019 
L 217.157835 -255.155999 
L 214.327838 -257.86399 
L 214.289381 -259.553459 
L 211.989374 -261.653208 
L 209.134585 -263.68181 
L 210.424632 -264.247677 
L 211.866789 -265.228184 
L 212.950269 -269.86061 
L 214.101662 -272.264053 
L 217.119209 -272.975929 
L 217.839275 -271.55206 
L 220.001397 -268.524804 
L 221.153731 -268.079449 
L 222.66265 -268.970116 
L 225.685144 -268.791996 
L 226.265031 -267.723134 
L 230.439818 -267.723134 
L 230.577904 -268.791996 
L 232.730228 -269.771569 
L 233.151662 -271.285032 
L 234.72523 -272.353044 
L 238.272368 -269.326335 
L 240.425634 -269.86061 
L 242.472821 -273.598721 
L 244.737336 -276.444573 
L 244.340048 -279.554881 
L 243.318133 -281.06468 
L 245.820577 -281.331051 
L 246.090749 -282.485098 
L 248.028133 -282.130046 
L 247.581693 -278.31106 
L 248.134245 -274.577207 
L 250.31625 -272.53102 
L 250.843122 -270.750928 
L 250.804359 -268.168523 
L 251.385976 -268.065915 
L 251.483776 -264.018483 
L 250.874086 -262.432305 
L 248.646471 -262.304621 
L 247.244052 -259.344867 
L 249.829334 -258.972558 
L 251.985696 -256.438641 
L 252.743022 -254.358899 
L 254.677167 -253.15276 
L 257.21828 -247.488816 
L 254.386187 -244.057525 
L 251.809889 -240.946127 
L 249.226134 -238.549653 
L 246.255435 -238.561744 
L 242.861253 -237.341912 
L 240.172052 -238.507439 
z
" style="stroke: #d3d3d3"/>
    </defs>
    <g clip-path="url(#pcb7045fcf0)">
     <use xlink:href="#m2a89bf2510" x="0" y="449.28" style="fill: #ffffff; stroke: #d3d3d3"/>
    </g>
   </g>
   <g id="PathCollection_52">
    <path d="M 91.210249 67.96083 
L 122.528488 86.521647 
" clip-path="url(#pcb7045fcf0)" style="fill: none; stroke: #4682b4"/>
   </g>
   <g id="PathCollection_53">
    <path d="M 91.210249 67.96083 
L 236.730751 92.569134 
" clip-path="url(#pcb7045fcf0)" style="fill: none; stroke: #4682b4"/>
   </g>
   <g id="PathCollection_54">
    <path d="M 160.615652 192.093783 
L 104.436192 189.095505 
" clip-path="url(#pcb7045fcf0)" style="fill: none; stroke: #4682b4"/>
   </g>
   <g id="PathCollection_55">
    <path d="M 205.938023 386.968935 
L 268.366684 230.616178 
" clip-path="url(#pcb7045fcf0)" style="fill: none; stroke: #4682b4"/>
   </g>
   <g id="PathCollection_56">
    <path d="M 122.528488 86.521647 
L 268.366684 230.616178 
" clip-path="url(#pcb7045fcf0)" style="fill: none; stroke: #4682b4"/>
   </g>
   <g id="PathCollection_57">
    <path d="M 268.366684 230.616178 
L 252.492573 299.390556 
" clip-path="url(#pcb7045fcf0)" style="fill: none; stroke: #4682b4"/>
   </g>
   <g id="PathCollection_58">
    <path d="M 268.366684 230.616178 
L 346.093122 335.771585 
" clip-path="url(#pcb7045fcf0)" style="fill: none; stroke: #4682b4"/>
   </g>
   <g id="PathCollection_59">
    <path d="M 205.938023 386.968935 
L 187.696048 349.005702 
" clip-path="url(#pcb7045fcf0)" style="fill: none; stroke: #4682b4"/>
   </g>
   <g id="PathCollection_60">
    <path d="M 118.683479 182.026674 
L 145.324206 183.198052 
" clip-path="url(#pcb7045fcf0)" style="fill: none; stroke: #4682b4"/>
   </g>
   <g id="PathCollection_61">
    <path d="M 268.366684 230.616178 
L 205.938023 386.968935 
" clip-path="url(#pcb7045fcf0)" style="fill: none; stroke: #4682b4"/>
   </g>
   <g id="PathCollection_62">
    <path d="M 268.366684 230.616178 
L 205.938023 386.968935 
" clip-path="url(#pcb7045fcf0)" style="fill: none; stroke: #4682b4"/>
   </g>
   <g id="PathCollection_63">
    <path d="M 268.366684 230.616178 
L 205.938023 386.968935 
" clip-path="url(#pcb7045fcf0)" style="fill: none; stroke: #4682b4"/>
   </g>
   <g id="PathCollection_64">
    <path d="M 236.730751 92.569134 
L 205.938023 386.968935 
" clip-path="url(#pcb7045fcf0)" style="fill: none; stroke: #4682b4"/>
   </g>
   <g id="PathCollection_65">
    <path d="M 268.366684 230.616178 
L 205.938023 386.968935 
" clip-path="url(#pcb7045fcf0)" style="fill: none; stroke: #4682b4"/>
   </g>
   <g id="PathCollection_66">
    <path d="M 268.366684 230.616178 
L 255.453874 263.687641 
" clip-path="url(#pcb7045fcf0)" style="fill: none; stroke: #4682b4"/>
   </g>
   <g id="PathCollection_67">
    <path d="M 145.324206 183.198052 
L 244.617889 223.330314 
" clip-path="url(#pcb7045fcf0)" style="fill: none; stroke: #4682b4"/>
   </g>
   <g id="PathCollection_68">
    <path d="M 145.324206 183.198052 
L 244.617889 223.330314 
" clip-path="url(#pcb7045fcf0)" style="fill: none; stroke: #4682b4"/>
   </g>
   <g id="PathCollection_69">
    <path d="M 268.366684 230.616178 
L 230.8015 328.977062 
" clip-path="url(#pcb7045fcf0)" style="fill: none; stroke: #4682b4"/>
   </g>
  </g>
 </g>
 <defs>
  <clipPath id="pcb7045fcf0">
   <path d="M 7.2 442.08 
L 7.2 7.2 
L 352.478224 7.2 
L 352.478224 442.08 
L 7.2 442.08 
"/>
  </clipPath>
 </defs>
</svg>
